<svg xmlns="http://www.w3.org/2000/svg" viewBox="0 0 512 512"><defs><style>.cls-1,.cls-2{fill-rule:evenodd;}.cls-2{fill:#fff;}</style></defs><title>bandcamp_logo</title><g id="Calque_2" data-name="Calque 2"><g id="Calque_1-2" data-name="Calque 1"><path class="cls-1" d="M256,512c141.38,0,256-114.62,256-256S397.38,0,256,0,0,114.62,0,256,114.62,512,256,512Z"/><path class="cls-2" d="M324.86,238.4c-18.35,0-27.73,14.45-27.73,36.2,0,20.57,10.14,36,27.73,36,19.89,0,27.34-18.2,27.34-36,0-18.59-9.38-36.2-27.35-36.2m-48.75-54h21.8v52.21h.38c5.93-9.88,18.36-16,29.45-16C358.89,220.6,374,245.14,374,275c0,27.48-13.38,53.39-42.64,53.39-13.39,0-27.73-3.35-34.23-16.8h-.38v14H276.1V184.41h0"/><path class="cls-2" d="M454.39,257.6c-1.72-12.46-10.52-19.19-22.56-19.19-11.29,0-27.16,6.13-27.16,37.19,0,17,7.27,35,26.2,35,12.62,0,21.41-8.71,23.52-23.35h21.8c-4,26.51-19.89,41.14-45.32,41.14-31,0-48-22.74-48-52.8,0-30.86,16.25-55,48.76-55,22.94,0,42.45,11.87,44.55,37h-21.8"/><polyline class="cls-2" points="199.9 325.34 36.41 325.34 112.75 184.41 276.24 184.41 199.9 325.34"/></g></g></svg>