<svg xmlns="http://www.w3.org/2000/svg" viewBox="0 0 128 128"><defs><style>.cls-1{fill:#fff;}</style></defs><title>logo_website</title><g id="Calque_2" data-name="Calque 2"><g id="Layer_1" data-name="Layer 1"><circle id="circle" cx="64" cy="64" r="64"/><path id="globe" class="cls-1" d="M94,64A30,30,0,1,0,64,94a29.61,29.61,0,0,0,18.6-6.5c.2,0,.4-.1.6-.1,0-.1-.1-.2-.1-.3A29.75,29.75,0,0,0,94,64Zm-4.1-2H74c-.1-3.6-.4-7.1-.8-10.2a20.11,20.11,0,0,0,7.9-7.4A25.64,25.64,0,0,1,89.9,62ZM64,90c-2,0-3.9-4.4-4.9-11.2A16.22,16.22,0,0,1,64,78a15.72,15.72,0,0,1,4.9.8C67.9,85.6,66,90,64,90Zm8.4-9.6A16.37,16.37,0,0,1,77.9,86a28.3,28.3,0,0,1-8.6,3.5A40.14,40.14,0,0,0,72.4,80.4ZM58.7,89.5A24,24,0,0,1,50.1,86a15.53,15.53,0,0,1,5.5-5.6A40.14,40.14,0,0,0,58.7,89.5ZM64.4,74a18.53,18.53,0,0,0-5.8.9,80.79,80.79,0,0,1-.5-8.9h12c-.1,3.1-.2,6-.5,8.7A18.61,18.61,0,0,0,64.4,74ZM58,62c.1-3.1.2-6.1.5-8.8A19.76,19.76,0,0,0,64,54a20.32,20.32,0,0,0,5.5-.8A80.35,80.35,0,0,1,70,62Zm6-24c2,0,3.8,4.4,4.9,11.1a15.53,15.53,0,0,1-5.3.9,14.26,14.26,0,0,1-4.6-.7C60.1,42.5,61.9,38,64,38Zm-8.4,9.8a16.37,16.37,0,0,1-5.7-5.7,25.18,25.18,0,0,1,8.8-3.6A40.38,40.38,0,0,0,55.6,47.8Zm13.7-9.3a23.58,23.58,0,0,1,8.2,3.3,16.46,16.46,0,0,1-5.2,5.6A36.88,36.88,0,0,0,69.3,38.5ZM46.9,44.4a20.11,20.11,0,0,0,7.9,7.4A65.92,65.92,0,0,0,54,62H38.1A25.64,25.64,0,0,1,46.9,44.4ZM38.1,66H54a82.24,82.24,0,0,0,.9,10.4,20.26,20.26,0,0,0-7.7,7.4A25.81,25.81,0,0,1,38.1,66ZM73.2,76A77.92,77.92,0,0,0,74,66H89.9a25.8,25.8,0,0,1-8.6,17.4A20.59,20.59,0,0,0,73.2,76Z"/></g></g></svg>