<svg xmlns="http://www.w3.org/2000/svg" viewBox="0 0 158.173 94.553"><defs><style>.a{fill:#ffdcd4;}</style></defs><g transform="translate(0.019 0.027)"><g transform="translate(-0.019 -0.027)"><path class="a" d="M115.321,48.669a31.421,31.421,0,0,1-2.086,3.712c-.672.955-1.308,1.909-2.015,2.758a9.992,9.992,0,0,1-2.4,2.015,5.487,5.487,0,0,1-2.9.778,5.547,5.547,0,0,1-2.652-.566,5.257,5.257,0,0,1-1.768-1.52,14.824,14.824,0,0,0,2.369-1.485,10.673,10.673,0,0,0,1.909-1.874,9.092,9.092,0,0,0,1.273-2.192,6.6,6.6,0,0,0,.46-2.51,4.544,4.544,0,0,0-.354-1.874,4.8,4.8,0,0,0-.955-1.379,4.5,4.5,0,0,0-1.308-.884,3.743,3.743,0,0,0-1.485-.318,4.776,4.776,0,0,0-2.334.6,6.165,6.165,0,0,0-1.839,1.626A7.094,7.094,0,0,0,98.067,48h0s-.424,1.131-.495,1.308c-.247.566-.6,1.308-1.1,2.227a20.339,20.339,0,0,1-1.732,2.687,14.916,14.916,0,0,1-2.157,2.3,3.791,3.791,0,0,1-2.4.955,1.755,1.755,0,0,1-1.1-.318,1.931,1.931,0,0,1-.636-.849,5.569,5.569,0,0,1-.318-1.273,10.2,10.2,0,0,1-.071-1.485c0-.424,0-.849.035-1.308l.106-1.379c.035-.46.071-.884.106-1.308.035-.389.035-.742.035-1.025a5.7,5.7,0,0,0-.813-3.076,2.805,2.805,0,0,0-2.51-1.237,4.084,4.084,0,0,0-1.8.495,6.688,6.688,0,0,0-1.909,1.662c-.636.778-1.237,1.626-1.8,2.475-.566.884-1.131,1.732-1.662,2.616s-1.025,1.768-1.485,2.616-.849,1.662-1.2,2.369c.071-.636.141-1.414.212-2.369.071-.919.141-1.874.247-2.829q.106-1.432.212-2.652c.035-.813.071-1.45.071-1.839a7.157,7.157,0,0,0-.141-1.52,5.747,5.747,0,0,0-.46-1.379,2.588,2.588,0,0,0-.849-.99,2.173,2.173,0,0,0-1.273-.389,3.362,3.362,0,0,0-2.546,1.662,24.941,24.941,0,0,0-2.758,5.127c-.177.424-.424.919-.707,1.485a18.177,18.177,0,0,1-.99,1.768c-.389.6-.778,1.2-1.237,1.8a12.56,12.56,0,0,1-1.414,1.591,8.273,8.273,0,0,1-1.485,1.131,3.224,3.224,0,0,1-1.556.424,2.4,2.4,0,0,1-1.909-.813,4.974,4.974,0,0,1-1.025-1.909,9.9,9.9,0,0,1-.424-2.227c-.071-.742-.106-1.344-.141-1.732a1.262,1.262,0,0,0-.389-.813,1.024,1.024,0,0,0-.813-.354,1.267,1.267,0,0,0-.849.318,1.148,1.148,0,0,0-.424.778,9.583,9.583,0,0,1-.813,2.935A9.282,9.282,0,0,1,52.422,55.7a4.642,4.642,0,0,1-1.485,1.2,3.145,3.145,0,0,1-1.344.389,2.837,2.837,0,0,1-1.379-.318,2.271,2.271,0,0,1-.884-.849,4.229,4.229,0,0,1-.46-1.167,7.792,7.792,0,0,1-.141-1.273,8.66,8.66,0,0,1,.636-3.465,7.914,7.914,0,0,1,1.591-2.4,6.072,6.072,0,0,1,2.086-1.414,5.643,5.643,0,0,1,2.157-.46,4.414,4.414,0,0,1,2.157.495,5.017,5.017,0,0,1,.636.389,2.656,2.656,0,0,1,.283.247,1.173,1.173,0,0,0,.884.354,1.065,1.065,0,0,0,.849-.389,1.173,1.173,0,0,0,.354-.884,1.287,1.287,0,0,0-.354-.884c-.035-.035-.141-.141-.354-.318a5.923,5.923,0,0,0-.919-.6,8.156,8.156,0,0,0-1.45-.6,6.135,6.135,0,0,0-1.874-.283,8.438,8.438,0,0,0-3.111.636,9.79,9.79,0,0,0-2.97,1.945A21.505,21.505,0,0,0,45.315,48.7h0s-.849,1.414-1.131,1.98a17.8,17.8,0,0,1-.99,1.732,18.613,18.613,0,0,1-1.237,1.839,12.971,12.971,0,0,1-1.414,1.626,6.628,6.628,0,0,1-1.556,1.167,3.519,3.519,0,0,1-1.662.424,2.139,2.139,0,0,1-1.237-.318,1.767,1.767,0,0,1-.672-.849,4,4,0,0,1-.283-1.2c-.035-.46-.071-.919-.071-1.379a21.751,21.751,0,0,1,.177-2.864,18.186,18.186,0,0,0,.177-2.334,7.385,7.385,0,0,0-.177-1.485,3.837,3.837,0,0,0-.566-1.414,3.273,3.273,0,0,0-1.131-1.061,3.538,3.538,0,0,0-1.839-.424,4.747,4.747,0,0,0-2.157.636,8.445,8.445,0,0,0-2.616,2.581,14.7,14.7,0,0,0-1.061,1.7c-.389.707-.813,1.414-1.237,2.192s-.849,1.591-1.237,2.369-.778,1.52-1.1,2.157c.035-.6.035-1.273.071-1.945q.053-1.061.106-2.015c.035-.672.071-1.273.106-1.839s.035-1.025.035-1.379a6.564,6.564,0,0,0-.212-1.7,4.616,4.616,0,0,0-.6-1.414,3.19,3.19,0,0,0-.99-.955,2.673,2.673,0,0,0-1.45-.354,4.63,4.63,0,0,0-1.874.495A5.823,5.823,0,0,0,15.545,46.3c-.354.46-.813,1.131-1.344,1.98-.53.884-1.061,1.8-1.626,2.793s-1.1,1.945-1.591,2.935-.919,1.768-1.273,2.44l.318-4.879c.106-1.626.141-3.394.141-5.339a5.992,5.992,0,0,0-.141-1.344A4.649,4.649,0,0,0,9.6,43.648a2.418,2.418,0,0,0-.813-.884,2.349,2.349,0,0,0-1.273-.354A3.523,3.523,0,0,0,4.9,44.072,23.052,23.052,0,0,0,2.074,49.2a1.388,1.388,0,0,0-.106.495,1.429,1.429,0,0,0,.318.884,1.149,1.149,0,0,0,.884.389,1.164,1.164,0,0,0,.672-.212,1.286,1.286,0,0,0,.495-.566,24.773,24.773,0,0,1,1.945-4c.495-.742.849-1.167,1.025-1.2.106.071.212.354.247.813a9.958,9.958,0,0,1,.071,1.485c-.035,1.025-.106,2.121-.141,3.288-.071,1.167-.106,2.3-.141,3.324s-.071,1.909-.106,2.616-.035,1.1-.035,1.167a2.3,2.3,0,0,0,.46,1.52,1.7,1.7,0,0,0,1.414.566,2.427,2.427,0,0,0,1.344-.495A5.331,5.331,0,0,0,11.8,57.4c.389-.778.813-1.626,1.308-2.581s1.025-1.909,1.556-2.793c.53-.919,1.025-1.732,1.485-2.51a16.586,16.586,0,0,1,1.167-1.7,4.59,4.59,0,0,1,1.025-1.025,1.538,1.538,0,0,1,.813-.247.849.849,0,0,1,.672.389,2.2,2.2,0,0,1,.283,1.237c0,.247,0,.636-.035,1.131S20.035,50.366,20,51s-.071,1.308-.106,2.015-.071,1.379-.106,2.015-.035,1.237-.071,1.8c-.035.53-.035.99-.035,1.308a2.5,2.5,0,0,0,.424,1.52,1.507,1.507,0,0,0,1.308.6,1.242,1.242,0,0,0,.707-.177,2.275,2.275,0,0,0,.672-.566,7.829,7.829,0,0,0,.707-1.061c.247-.46.566-1.025.919-1.732.672-1.273,1.308-2.51,1.945-3.712s1.273-2.3,1.874-3.253a13.344,13.344,0,0,1,1.768-2.3,2.441,2.441,0,0,1,1.662-.849h.283a.735.735,0,0,1,.424.177,1.345,1.345,0,0,1,.354.6,3.823,3.823,0,0,1,.141,1.237,20.953,20.953,0,0,1-.177,2.121,25.327,25.327,0,0,0-.177,2.97,16.445,16.445,0,0,0,.177,2.334A5.572,5.572,0,0,0,33.435,58a3.789,3.789,0,0,0,1.45,1.344,4.571,4.571,0,0,0,2.334.495,5.433,5.433,0,0,0,2.546-.636,9.894,9.894,0,0,0,2.263-1.626,15.728,15.728,0,0,0,1.909-2.157c.106-.141.212-.318.318-.46a5.888,5.888,0,0,0,.283,1.131A5.738,5.738,0,0,0,45.6,57.968a4.763,4.763,0,0,0,1.662,1.237,5.388,5.388,0,0,0,2.192.424,5.2,5.2,0,0,0,3.076-1.1,9.457,9.457,0,0,0,2.652-2.97A7.252,7.252,0,0,0,57.053,58.6a4.4,4.4,0,0,0,3.182,1.2,5.433,5.433,0,0,0,2.546-.636,9.893,9.893,0,0,0,2.263-1.626,12.071,12.071,0,0,0,1.874-2.157A24.7,24.7,0,0,0,68.4,53.124q.636-1.061,1.061-1.909c.247-.495.389-.813.495-1.025,0-.035.035-.035.035-.071a22.656,22.656,0,0,1,1.945-3.96c.495-.742.849-1.167,1.061-1.237.141.106.212.424.247.919s.071,1.025.071,1.556c0,.424-.035.919-.071,1.52s-.106,1.273-.177,1.98-.141,1.414-.177,2.121q-.106,1.061-.212,2.015c-.071.636-.106,1.167-.177,1.591-.035.46-.071.742-.071.884A2.172,2.172,0,0,0,73,59.134a2.027,2.027,0,0,0,1.52.566,2.459,2.459,0,0,0,1.344-.46A4.81,4.81,0,0,0,77.171,57.4c.212-.495.53-1.1.884-1.8.389-.742.778-1.485,1.237-2.3s.919-1.626,1.45-2.44,1.025-1.556,1.485-2.192a10.71,10.71,0,0,1,1.414-1.591,1.833,1.833,0,0,1,1.2-.6c.177,0,.354.141.6.389a2.24,2.24,0,0,1,.318,1.414c0,.424,0,.849-.035,1.308s-.071.919-.141,1.379-.106.884-.141,1.308-.035.778-.035,1.1a15.845,15.845,0,0,0,.177,2.263,5.651,5.651,0,0,0,.707,2.051,3.664,3.664,0,0,0,1.45,1.485,4.356,4.356,0,0,0,2.369.566,4.955,4.955,0,0,0,2.51-.672,11.939,11.939,0,0,0,2.227-1.626,15.775,15.775,0,0,0,1.874-2.157c.424-.6.813-1.167,1.167-1.732a4.274,4.274,0,0,0,.177.636,9.191,9.191,0,0,0,1.485,3.005,7.529,7.529,0,0,0,6.293,2.97,8.664,8.664,0,0,0,6.011-2.581,16.882,16.882,0,0,0,2.227-2.616,8.7,8.7,0,0,0,.247,1.025,5.662,5.662,0,0,0,1.025,1.874,4.22,4.22,0,0,0,1.591,1.237,5,5,0,0,0,2.086.424,5.867,5.867,0,0,0,2.687-.707,6.879,6.879,0,0,0,2.334-1.945c-.035,1.273-.071,2.652-.071,4.137s-.035,3.005-.035,4.526a34.564,34.564,0,0,0-2.546,3.253,43.328,43.328,0,0,0-2.192,3.748c-.672,1.308-1.273,2.652-1.839,4.031a40.336,40.336,0,0,0-1.414,4.1,28.2,28.2,0,0,0-.884,3.925,21.493,21.493,0,0,0-.318,3.536,8.153,8.153,0,0,0,1.167,4.738,3.9,3.9,0,0,0,3.359,1.662,4.431,4.431,0,0,0,2.652-.778,6.955,6.955,0,0,0,1.909-2.121,13.889,13.889,0,0,0,1.308-3.182,31.209,31.209,0,0,0,.813-4.031c.212-1.45.318-2.97.424-4.561.071-1.591.106-3.217.106-4.844s0-3.147-.035-4.526-.035-2.758-.035-4.1c2.687-3.359,4.915-6.4,6.682-9.087.849-1.273,1.591-2.51,2.263-3.677a2.606,2.606,0,0,0,.141.495,9.191,9.191,0,0,0,1.485,3.005,7.529,7.529,0,0,0,6.293,2.97,8.664,8.664,0,0,0,6.011-2.581,23.5,23.5,0,0,0,4.915-7.46.5.5,0,0,0,.071-.212c6.011-13.86,3.854-19.906,1.308-23.618-5.021-7.319-14.885-5.834-28.568-3.748-13.506,2.051-30.336,4.6-50.03.177-15.2-3.43-26.27-9.758-35.144-14.85C31.208,1.892,23.429-2.6,14.873,1.645,6.529,5.781,1.543,16.494-.012,33.536a1.228,1.228,0,0,0,1.1,1.344,1.176,1.176,0,0,0,1.308-1.1C3.842,17.661,8.4,7.584,15.934,3.872c7.39-3.677,14.708.495,24.82,6.293C49.77,15.328,61.013,21.762,76.57,25.3c20.153,4.526,37.2,1.945,50.914-.141,12.8-1.945,22.027-3.324,26.2,2.722,2.192,3.217,4,8.521-1.556,21.32a.109.109,0,0,0-.035.071c-.46,1.025-.99,2.051-1.52,3.076a15.734,15.734,0,0,1-1.945,2.793,10.554,10.554,0,0,1-2.369,2.015,6.105,6.105,0,0,1-5.551.212,5.257,5.257,0,0,1-1.768-1.52,15.152,15.152,0,0,0,2.4-1.485,10.673,10.673,0,0,0,1.909-1.874,9.093,9.093,0,0,0,1.273-2.192,6.6,6.6,0,0,0,.46-2.51,4.543,4.543,0,0,0-.354-1.874,4.8,4.8,0,0,0-.955-1.379,4.224,4.224,0,0,0-1.344-.884,3.743,3.743,0,0,0-1.485-.318,4.776,4.776,0,0,0-2.334.6,6.165,6.165,0,0,0-1.839,1.626A7.8,7.8,0,0,0,135.51,48a8.615,8.615,0,0,0-.212.919,1.053,1.053,0,0,0-.247.389A71.746,71.746,0,0,1,126.529,62.6c.035-1.556.035-3.041.071-4.455s.071-2.652.071-3.712c.035-1.061.035-1.909.071-2.581.035-.636.035-.99.035-.99a1.358,1.358,0,0,0-.318-.884,1.076,1.076,0,0,0-.849-.389,1.267,1.267,0,0,0-.849.318,1.148,1.148,0,0,0-.424.778,10.732,10.732,0,0,1-.778,2.935,7.242,7.242,0,0,1-1.273,2.051,5.549,5.549,0,0,1-1.485,1.2,3.3,3.3,0,0,1-1.45.389,2.442,2.442,0,0,1-2.121-.955,4.257,4.257,0,0,1-.672-2.546,8.473,8.473,0,0,1,.672-3.571,7.885,7.885,0,0,1,1.7-2.44,6.556,6.556,0,0,1,4.349-1.8,3.669,3.669,0,0,1,1.131.141,2.442,2.442,0,0,1,.813.318,3.913,3.913,0,0,1,.566.389,2.039,2.039,0,0,0,.354.283,1.287,1.287,0,0,0,.884.354,1.065,1.065,0,0,0,.849-.389,1.173,1.173,0,0,0,.354-.884,1.227,1.227,0,0,0-.354-.884c-.035-.035-.141-.141-.354-.318a9.664,9.664,0,0,0-.919-.636,6.17,6.17,0,0,0-1.45-.6,6.325,6.325,0,0,0-1.874-.247,8.438,8.438,0,0,0-3.111.636,9.79,9.79,0,0,0-2.97,1.945,10.693,10.693,0,0,0-1.874,2.616m-15.062,3.783a7.631,7.631,0,0,1-.106-1.237,11.622,11.622,0,0,1,.177-1.909,6.9,6.9,0,0,1,.566-1.768,3.338,3.338,0,0,1,1.025-1.273,2.421,2.421,0,0,1,1.485-.495,1.584,1.584,0,0,1,1.131.495,2.087,2.087,0,0,1,.5,1.485,4.85,4.85,0,0,1-.318,1.732,7.026,7.026,0,0,1-.919,1.662,7.8,7.8,0,0,1-1.414,1.45,8.589,8.589,0,0,1-1.839,1.061A10.039,10.039,0,0,1,100.259,52.452Zm23.83,23.017c0,1.061-.035,2.192-.071,3.43s-.106,2.475-.212,3.748c-.106,1.237-.283,2.475-.5,3.642a16.431,16.431,0,0,1-.849,3.111,6.564,6.564,0,0,1-1.273,2.157,2.374,2.374,0,0,1-1.768.813,1.8,1.8,0,0,1-.707-.141,1.2,1.2,0,0,1-.672-.53,3.166,3.166,0,0,1-.53-1.1,7.221,7.221,0,0,1-.212-1.945,24.916,24.916,0,0,1,.46-4.278,41.559,41.559,0,0,1,1.344-4.95,47.917,47.917,0,0,1,2.121-5.056,34.82,34.82,0,0,1,2.758-4.632c.035.99.071,1.945.071,2.864v2.864ZM137.7,52.452a7.633,7.633,0,0,1-.106-1.237,11.623,11.623,0,0,1,.177-1.909,6.9,6.9,0,0,1,.566-1.768,3.338,3.338,0,0,1,1.025-1.273,2.421,2.421,0,0,1,1.485-.495,1.584,1.584,0,0,1,1.131.495,2.087,2.087,0,0,1,.495,1.485,4.85,4.85,0,0,1-.318,1.732,7.027,7.027,0,0,1-.919,1.662,9.1,9.1,0,0,1-1.414,1.45,8.589,8.589,0,0,1-1.839,1.061A10.04,10.04,0,0,1,137.7,52.452Z" transform="translate(0.019 0.027)"/><path class="a" d="M286.836,98.733l-5.233-4.95a1.3,1.3,0,0,0-.742-.283,1.018,1.018,0,0,0-.742.318,1.1,1.1,0,0,0-.318.778.963.963,0,0,0,.318.742l5.233,4.95a1.141,1.141,0,0,0,.742.283,1.04,1.04,0,0,0,.778-.318,1.018,1.018,0,0,0,.318-.742A1.315,1.315,0,0,0,286.836,98.733Z" transform="translate(-180.866 -60.432)"/></g></g></svg>